<svg width="20" height="20" viewBox="0 0 20 20" fill="none" xmlns="http://www.w3.org/2000/svg">
<g id="trash-01" clip-path="url(#clip0_1_35)">
<path id="Icon" d="M13.5749 4.8471V4.20604C13.5749 3.30846 13.5749 2.85968 13.4002 2.51685C13.2465 2.21529 13.0014 1.97012 12.6998 1.81646C12.357 1.64178 11.9082 1.64178 11.0106 1.64178H9.7285C8.83093 1.64178 8.38214 1.64178 8.03932 1.81646C7.73776 1.97012 7.49258 2.21529 7.33893 2.51685C7.16425 2.85968 7.16425 3.30846 7.16425 4.20604V4.8471M8.76691 9.25441V13.261M11.9722 9.25441V13.261M3.15761 4.8471H17.5815M15.9789 4.8471V13.822C15.9789 15.1683 15.9789 15.8415 15.7168 16.3558C15.4864 16.8081 15.1186 17.1759 14.6663 17.4063C14.152 17.6684 13.4788 17.6684 12.1325 17.6684H8.60664C7.26028 17.6684 6.5871 17.6684 6.07286 17.4063C5.62052 17.1759 5.25276 16.8081 5.02228 16.3558C4.76026 15.8415 4.76026 15.1683 4.76026 13.822V4.8471" stroke="#344054" stroke-width="1.60266" stroke-linecap="round" stroke-linejoin="round"/>
</g>
<defs>
<clipPath id="clip0_1_35">
<rect width="19.2319" height="19.2319" fill="white" transform="translate(0.753616 0.0391235)"/>
</clipPath>
</defs>
</svg>
