<svg width="16" height="16" viewBox="0 0 16 16" fill="none" xmlns="http://www.w3.org/2000/svg">
<g id="search_FILL0_wght400_GRAD0_opsz48 1">
<path id="Vector" d="M13.2667 13L8.88333 8.61667C8.55 8.90556 8.16134 9.13056 7.71735 9.29167C7.27336 9.45278 6.80091 9.53333 6.3 9.53333C5.0982 9.53333 4.08108 9.11667 3.24865 8.28333C2.41622 7.45 2 6.44444 2 5.26667C2 4.08889 2.41667 3.08333 3.25 2.25C4.08333 1.41667 5.09167 1 6.275 1C7.45833 1 8.46389 1.41667 9.29167 2.25C10.1194 3.08333 10.5333 4.08972 10.5333 5.26917C10.5333 5.74528 10.4556 6.20556 10.3 6.65C10.1444 7.09444 9.91111 7.51111 9.6 7.9L14 12.2667L13.2667 13ZM6.28333 8.53333C7.18611 8.53333 7.95347 8.21389 8.58542 7.575C9.21736 6.93611 9.53333 6.16667 9.53333 5.26667C9.53333 4.36667 9.21736 3.59722 8.58542 2.95833C7.95347 2.31944 7.18611 2 6.28333 2C5.3713 2 4.59607 2.31944 3.95763 2.95833C3.31921 3.59722 3 4.36667 3 5.26667C3 6.16667 3.31921 6.93611 3.95763 7.575C4.59607 8.21389 5.3713 8.53333 6.28333 8.53333Z" fill="#667085"/>
</g>
</svg>
